<svg width="148" height="27" viewBox="0 0 148 27" fill="none" xmlns="http://www.w3.org/2000/svg">
<path d="M0.301875 26V0.799998H15.5299V3.536H3.32588V11.996H14.5579V14.732H3.32588V26H0.301875ZM27.7043 26.504C25.9283 26.504 24.3683 26.132 23.0243 25.388C21.6803 24.62 20.6363 23.552 19.8923 22.184C19.1483 20.816 18.7763 19.232 18.7763 17.432V17C18.7763 15.176 19.1483 13.58 19.8923 12.212C20.6363 10.844 21.6683 9.788 22.9883 9.044C24.3083 8.276 25.8203 7.892 27.5243 7.892C29.1803 7.892 30.6443 8.252 31.9163 8.972C33.1883 9.668 34.1843 10.676 34.9043 11.996C35.6243 13.316 35.9843 14.864 35.9843 16.64V17.936H21.6203C21.6923 19.832 22.3043 21.32 23.4563 22.4C24.6083 23.456 26.0483 23.984 27.7763 23.984C29.2883 23.984 30.4523 23.636 31.2683 22.94C32.0843 22.244 32.7083 21.416 33.1403 20.456L35.5883 21.644C35.2283 22.388 34.7243 23.132 34.0763 23.876C33.4523 24.62 32.6243 25.244 31.5923 25.748C30.5843 26.252 29.2883 26.504 27.7043 26.504ZM21.6563 15.596H33.1043C33.0083 13.964 32.4443 12.692 31.4123 11.78C30.4043 10.868 29.1083 10.412 27.5243 10.412C25.9163 10.412 24.5963 10.868 23.5643 11.78C22.5323 12.692 21.8963 13.964 21.6563 15.596ZM43.6628 26V10.88H38.2628V8.396H43.6628V3.896C43.6628 2.936 43.9268 2.18 44.4548 1.628C45.0068 1.076 45.7868 0.799998 46.7948 0.799998H51.2228V3.248H47.5868C46.8668 3.248 46.5068 3.608 46.5068 4.328V8.396H52.0508V10.88H46.5068V26H43.6628ZM63.3176 26.504C61.5416 26.504 59.9816 26.132 58.6376 25.388C57.2936 24.62 56.2496 23.552 55.5056 22.184C54.7616 20.816 54.3896 19.232 54.3896 17.432V17C54.3896 15.176 54.7616 13.58 55.5056 12.212C56.2496 10.844 57.2816 9.788 58.6016 9.044C59.9216 8.276 61.4336 7.892 63.1376 7.892C64.7936 7.892 66.2576 8.252 67.5296 8.972C68.8016 9.668 69.7976 10.676 70.5176 11.996C71.2376 13.316 71.5976 14.864 71.5976 16.64V17.936H57.2336C57.3056 19.832 57.9176 21.32 59.0696 22.4C60.2216 23.456 61.6616 23.984 63.3896 23.984C64.9016 23.984 66.0656 23.636 66.8816 22.94C67.6976 22.244 68.3216 21.416 68.7536 20.456L71.2016 21.644C70.8416 22.388 70.3376 23.132 69.6896 23.876C69.0656 24.62 68.2376 25.244 67.2056 25.748C66.1976 26.252 64.9016 26.504 63.3176 26.504ZM57.2696 15.596H68.7176C68.6216 13.964 68.0576 12.692 67.0256 11.78C66.0176 10.868 64.7216 10.412 63.1376 10.412C61.5296 10.412 60.2096 10.868 59.1776 11.78C58.1456 12.692 57.5096 13.964 57.2696 15.596ZM79.276 26V10.88H73.876V8.396H79.276V3.896C79.276 2.936 79.54 2.18 80.068 1.628C80.62 1.076 81.4 0.799998 82.408 0.799998H86.728V3.248H83.2C82.48 3.248 82.12 3.608 82.12 4.328V8.396H90.868V10.88H82.12V26H79.276ZM90.868 26V8.396H93.712V26H90.868ZM92.272 5.696C91.672 5.696 91.156 5.492 90.724 5.084C90.316 4.676 90.112 4.16 90.112 3.536C90.112 2.888 90.316 2.372 90.724 1.988C91.156 1.58 91.672 1.376 92.272 1.376C92.92 1.376 93.448 1.58 93.856 1.988C94.264 2.372 94.468 2.888 94.468 3.536C94.468 4.16 94.264 4.676 93.856 5.084C93.448 5.492 92.92 5.696 92.272 5.696ZM99.6911 26V8.396H102.463V10.556H102.967C103.279 9.788 103.759 9.224 104.407 8.864C105.055 8.504 105.907 8.324 106.963 8.324H109.051V10.916H106.783C105.511 10.916 104.479 11.276 103.687 11.996C102.919 12.692 102.535 13.784 102.535 15.272V26H99.6911ZM120.693 26.504C118.917 26.504 117.357 26.132 116.013 25.388C114.669 24.62 113.625 23.552 112.881 22.184C112.137 20.816 111.765 19.232 111.765 17.432V17C111.765 15.176 112.137 13.58 112.881 12.212C113.625 10.844 114.657 9.788 115.977 9.044C117.297 8.276 118.809 7.892 120.513 7.892C122.169 7.892 123.633 8.252 124.905 8.972C126.177 9.668 127.173 10.676 127.893 11.996C128.613 13.316 128.973 14.864 128.973 16.64V17.936H114.609C114.681 19.832 115.293 21.32 116.445 22.4C117.597 23.456 119.037 23.984 120.765 23.984C122.277 23.984 123.441 23.636 124.257 22.94C125.073 22.244 125.697 21.416 126.129 20.456L128.577 21.644C128.217 22.388 127.713 23.132 127.065 23.876C126.441 24.62 125.613 25.244 124.581 25.748C123.573 26.252 122.277 26.504 120.693 26.504ZM114.645 15.596H126.093C125.997 13.964 125.433 12.692 124.401 11.78C123.393 10.868 122.097 10.412 120.513 10.412C118.905 10.412 117.585 10.868 116.553 11.78C115.521 12.692 114.885 13.964 114.645 15.596ZM139.297 26V22.112H135.049V20.42H139.297V17.252C138.073 17.084 136.969 16.652 135.985 15.956C135.001 15.26 134.221 14.372 133.645 13.292C133.069 12.212 132.781 11.048 132.781 9.8C132.781 8.456 133.117 7.232 133.789 6.128C134.485 5 135.397 4.1 136.525 3.428C137.677 2.756 138.925 2.42 140.269 2.42C141.637 2.42 142.885 2.756 144.013 3.428C145.165 4.1 146.077 5 146.749 6.128C147.421 7.232 147.757 8.456 147.757 9.8C147.757 11.024 147.469 12.176 146.893 13.256C146.317 14.336 145.537 15.236 144.553 15.956C143.593 16.652 142.489 17.084 141.241 17.252V20.42H145.237V22.112H141.241V26H139.297ZM140.269 15.488C141.301 15.488 142.249 15.236 143.113 14.732C143.977 14.204 144.661 13.508 145.165 12.644C145.693 11.78 145.957 10.832 145.957 9.8C145.957 8.792 145.693 7.868 145.165 7.028C144.661 6.188 143.977 5.516 143.113 5.012C142.249 4.484 141.301 4.22 140.269 4.22C139.237 4.22 138.289 4.484 137.425 5.012C136.561 5.516 135.865 6.188 135.337 7.028C134.833 7.868 134.581 8.792 134.581 9.8C134.581 10.832 134.833 11.78 135.337 12.644C135.865 13.508 136.561 14.204 137.425 14.732C138.289 15.236 139.237 15.488 140.269 15.488Z" fill="#2F3851"/>
</svg>
