<svg width="24" height="24" viewBox="0 0 24 24" fill="none" xmlns="http://www.w3.org/2000/svg">
<g clip-path="url(#clip0_2_33)">
<path d="M9 22C9.55228 22 10 21.5523 10 21C10 20.4477 9.55228 20 9 20C8.44772 20 8 20.4477 8 21C8 21.5523 8.44772 22 9 22Z" stroke="#808080" stroke-width="2" stroke-linecap="round" stroke-linejoin="round"/>
<path d="M20 22C20.5523 22 21 21.5523 21 21C21 20.4477 20.5523 20 20 20C19.4477 20 19 20.4477 19 21C19 21.5523 19.4477 22 20 22Z" stroke="#808080" stroke-width="2" stroke-linecap="round" stroke-linejoin="round"/>
<path d="M0 -3H4L6.68 10.39C6.77144 10.8504 7.02191 11.264 7.38755 11.5583C7.75318 11.8526 8.2107 12.009 8.68 12H18.4C18.8693 12.009 19.3268 11.8526 19.6925 11.5583C20.0581 11.264 20.3086 10.8504 20.4 10.39L22 2H5" stroke="#808080" stroke-width="2" stroke-linecap="round" stroke-linejoin="round"/>
</g>
<defs>
<clipPath id="clip0_2_33">
<rect width="24" height="24" fill="white"/>
</clipPath>
</defs>
</svg>
